<svg xmlns="http://www.w3.org/2000/svg" xmlns:xlink="http://www.w3.org/1999/xlink" viewBox="0 0 726.2 546.82"><style><![CDATA[.H{animation:_b0 1.5s infinite}.K{animation:_b1 1.5s infinite}@keyframes _b0{0%{transform:matrix(1,0,0,1,0,0)}50%{transform:matrix(1,-0.03,0,1,0,17)}100%{transform:matrix(1,0,0,1,0,0)}} @keyframes _b1{0%{transform:matrix(1,0,0,1,0,0)}50%{transform:matrix(1,-0.025,0,1,0,16)}100%{transform:matrix(1,0,0,1,0,0)}}.i{fill:none}.j{stroke-miterlimit:10}.k{fill:#101128}.l{stroke-linecap:round}.m{fill:#f2b2af}.n{fill:#b95c77}.o{stroke:#284e7a}.p{stroke-width:.78}.q{fill:#efe375}.r{fill:#fbccbd}.s{stroke-width:1.57}]]></style><defs><linearGradient id="A" x1="254.18" y1="478.19" x2="469.83" y2="478.19" gradientUnits="userSpaceOnUse"><stop offset="0" stop-color="#5f6cb2"/><stop offset="1" stop-color="#9974b3"/></linearGradient><linearGradient id="B" x1="310.46" y1="461.19" x2="500.65" y2="461.19" xlink:href="#A"/><linearGradient id="C" x1="213.06" y1="460.96" x2="400.24" y2="460.96" xlink:href="#A"/><clipPath id="D"><path d="M399.84 475.9l-98.92-34.7c-26.76-9.8-66-29.4-81.45-12.94s-2.54 41 34.7 54.33S396.64 500 396.64 500a46.69 46.69 0 0 0 3.2-24.1z" class="i"/></clipPath><linearGradient id="E" x1="181.83" y1="179.49" x2="254.05" y2="179.49" gradientUnits="userSpaceOnUse"><stop offset="0" stop-color="#f5df73"/><stop offset="1" stop-color="#f5f29e"/></linearGradient><linearGradient id="F" x1="236.12" y1="144.7" x2="295.71" y2="144.7" xlink:href="#E"/></defs><path d="M0 545.07h726.2v1.75H0z" fill="#a6a7d3"/><path d="M388.5 410.2c11.4 98.7 124.23 147.43 202.6 87.16q1.68-1.3 3.38-2.65c112.9-90 107.43-355.84-84-452.72S90.82 32.3 62.42 137.54s59.38 153.3 208.36 145.77C355 279.06 381.4 348.75 388.5 410.2zm-176.58 29.17c27.25-4.7 34.58-28.95 13.35-45.9-7-5.6-17-10.22-31.2-12.43-54.07-8.45-82.5 15.7-60.55 46.47 13.5 18.98 51.4 16.5 78.4 11.87z" fill="#f2f2f3"/><path d="M442.68 213.1s24.95-30.1 72.77-10.9 94.64 97.92 51.14 193.2" class="i j o p"/><path d="M447.54 234.1c-2.18 5.63-23.93-2.84-21.74-8.46l3.05-7.83a11.67 11.67 0 0 1 15.1-6.64 11.67 11.67 0 0 1 6.64 15.1z" class="k"/><path d="M425.8 225.63c-2.48 5.5 19.56 14.1 21.75 8.46 1.66-4.34-19.96-12.42-21.75-8.46z" fill="#485caa"/><path d="M434.4 229.85c-.24.7-1.28 1-2.33.63s-1.7-1.2-1.46-1.9 1.27-1 2.32-.63 1.7 1.2 1.47 1.9zm7.7 2.85c-.23.7-1.27 1-2.32.63s-1.7-1.2-1.47-1.9 1.28-1 2.33-.63 1.7 1.2 1.46 1.9z" fill="#1d1f56"/><g class="H"><path d="M563.1 507.4a31.32 31.32 0 0 1-15.53-11.19c-6.13-8.6-2.86-29.14 7.76-35s18.8-12.82 17.17-28.76 3.68-28.62 17.17-30.25 18.8-1.84 32.3-14 24.52-14.1 29.84-7.2 1.22 16.2-1.64 24.42 7.36 16.6 9.4 24.88.4 19-10.22 24.86-18 10.63-16.76 21.35-4.9 27-27.8 30.9z" fill="#a9badc"/><path d="M634.65,398.18S584.85,437.26,576,507.4" stroke="#485caa" class="i j l s"/></g><g class="K"><animateTransform begin="0" dur="1s" type="matrix" from="1 0 0 1 0 0" to="1 -0.1 0 1 0 59" attributeName="transform" repeatCount="indefinite"/><path d="M516.5 369c-7.84 4.93-7.36 13.48-6.95 24.33s-2.7 14.8-8.9 22-2.86 18.26 7.93 23.17 20.2 12.48 14.47 25.25-3.68 36 24.53 43.6l36.27.08s25.45-14.82 28.72-41.87-18.4-29.44-24.52-38.47-4.3-21.32-4.2-33.77-9.3-18.75-22-18.06-17.62 0-24.16-4.48-14.64-5.84-21.18-1.77z" fill="#9a9dce"/><path d="M529.12,385.1c.08.36,44.12,30.28,42,122.16" stroke="#485caa" class="i j l s"/></g><path d="M254.18 482.6c6.13 4.94 23.63 24.76 90.5 24.76 18.65 0 38.8.78 55.16-3.66 42.3-11.5 70-26.87 70-26.87L388 449l-73.35.4z" fill="url(#A)"/><path d="M310.46 470.9l-32 6.1 1.16 17.42 35.86-.88-5.03-22.63z" fill="#f6998e"/><path d="M310.46 470.9l101.67-28.06c27.6-7 69.5-26.07 83.62-8.4s-3.1 41.17-41.3 51.48-142.73 9.3-142.73 9.3z" fill="url(#B)"/><path d="M248.37 466.35s-1.25 4-1.05 12.5 4.5 14.92 4.93 27.3c0 0 4.8-7.9 4.57-20.73s-8.45-19.05-8.45-19.05z" fill="#eade74"/><path d="M294.76 494.8c-5 .54-13.38 4.45-18.52 7.17s-7.9 5.57-17.05 5.5c0 0 0-24.24-1-31.73s-2.5-8.78-2.5-8.78 8.5.54 12.72 2.8 4.7 3.3 12.15 3.6 10.5.7 13.75.63c4.92 7.73 2.95 17.12.45 20.82z" class="k"/><path d="M259.2 507.48c-2.9-.05-6.45-.13-6.94-1.35s2.9-8.45 1.55-22.78c-.72-7.7-6.13-16.75-5.43-17s4.94-1.85 7.3.62 14.33 18.18 3.52 40.5z" class="q"/><path d="M451.4 310.68c10.08-7.14 31.82-23.74 43.26-59.38 3.62-11.32 4-19.08 3.85-24.27-5.9-5-5.28-14.35-10.66-20.18-7.56-8.2-14.34-18.6.46-18.6 8.25 0 15.84.34 19.9 4.26 3.22 3.12 9.3 12.33 10.4 15.54 2.53 7.25-.4 16.38-.72 27.4s-7.56 80.06-60.83 109.06z" class="r"/><path d="M336 284.68s-.24 8.83-1 12.48 0 5.57-11.14 7.5c0 0 4.52 14.6 23.82 17.1s27.18-12.67 26.6-12.67a41 41 0 0 1-7.68-3.33c-1.73-1.12-.45-22.4-.45-22.4z" class="m"/><path d="M365.83,288.72s-2.36,7.48-14.07,8.25-16.08-6.62-16.08-6.62l.27-5.67,30.14-1.35Z" class="n"/><path d="M317.52 252.6s-6-1-8.7 3.5.67 12.78 7 14.17c6 1.33 8-2.06 8-2.06z" class="m"/><g class="n"><path d="M312.23 257.06a5.57 5.57 0 0 1 4.95-.11c.5.3-.17 1.16-.63 1.06-2.6-.6-5.64-.3-6.48 2.75 0 .16-.17 0-.16-.1a4.06 4.06 0 0 1 2.32-3.61z"/><path d="M313.42 257.13c.26-.17 1 .43.94.63a3.39 3.39 0 0 0-1.19 1.37A4.51 4.51 0 0 0 313 262a5 5 0 0 0 4.64 4.26s.13.12.06.15c-2 .8-4.7-1.05-5.42-2.86-.85-2-1.1-4.96 1.14-6.42z"/></g><path d="M376.08 241.36s5.28-3.12 9.4 0 4.12 12.1-1.22 15.74c-5.12 3.47-8.22 1.06-8.22 1.06z" class="m"/><g class="n"><path d="M382.65 243.53a5.56 5.56 0 0 0-4.63 1.74c-.36.47.6 1 1 .75 2.2-1.5 5.13-2.38 7 .15.1.14.17 0 .12-.14a4.07 4.07 0 0 0-3.49-2.5z"/><path d="M381.58 244c-.3-.06-.74.77-.64.94a3.33 3.33 0 0 1 1.61.83 4.44 4.44 0 0 1 1.26 2.59 5.05 5.05 0 0 1-2.72 5.68s-.08.16 0 .16c2.18 0 4-2.7 4-4.66-.02-2.12-.88-4.97-3.5-5.54z"/></g><path d="M354.4 212a28.47 28.47 0 0 0-14.53-1.2 29.19 29.19 0 0 0-13.34 6.31c-8.8 7.56-12.2 19.52-10 30.72v.05a81.36 81.36 0 0 0 2.4 9.49l1.37 4.35a68.57 68.57 0 0 0 7.39 15.86 26.12 26.12 0 0 0 48.3-9.27 68.49 68.49 0 0 0 1-17.48l-.34-4.55a81.5 81.5 0 0 0-1.28-9.7A32.21 32.21 0 0 0 354.39 212z" class="m"/><path d="M358.72 245.55a3.14 3.14 0 1 1 3.67 2.49 3.14 3.14 0 0 1-3.67-2.49zm.76-11.37l14.77 2.8s-1.05-4.06-6.3-6.18a8 8 0 0 0-6.45 0 3.56 3.56 0 0 0-2.02 3.38zm-25.35 4.5l-10.8 10.46s-1.36-4 1.87-8.63a8 8 0 0 1 5.39-3.52 3.57 3.57 0 0 1 3.54 1.69zm4.87 11.1a3.14 3.14 0 1 0-2.49 3.67 3.14 3.14 0 0 0 2.49-3.67z" fill="#0d1f44"/><path d="M300.92 220.48s11.2-2.18 15.48 3.57m-15.8-14.6s13.9 2.34 16 15.64" stroke="#0d1f44" stroke-width="1.71" class="i j l"/><path d="M321.07 224.07s7.84 11.8 20.72 15.3 20.17-11.43 18.86-18.2c0 0 12.6 20.27 15.43 20.2a41.88 41.88 0 0 0 2.07-17.31c-1-9.14-5.32-13.68-10-17.06a9.11 9.11 0 0 0-10.56-.11c-2.35-4.42-9.25-13.76-22.85-12.24-15.2 1.7-21.12 12.2-18.9 28.24 0 0-5.7-1.62-9.13 5s.4 19.5 4.94 25.6c0 0 4-1.25 5.86-.9 0 0-2.67-10.6-.16-19.9 2.05-7.55 3.72-8.63 3.72-8.63z" fill="#29337e"/><path d="M328.6 303.64c1.36 5.5 9.13 14.2 20.44 14.74s20.63-7.06 22.17-10.4c9.43.87 21.4 3.43 25.44 4.17 5.7 1 11.22 6.1 9.18 22.16l-14.33 114s-32.67 12.68-76.82 1.05l-29.1-116.1c-2.37-9.25-5.3-19 3.17-21.92s39.84-7.7 39.84-7.7z" class="q"/><path d="M365.05 417.33l1.9.28c6.22.65 3.4-6.38 1.43-9.15-3-4.23-23.7-20.28-23.7-20.28l-16.1 1.35-18.13 7.47-7.46 5.8 4.32 17.25c6.78-4.24 23.16-14.3 26.8-14.64a13 13 0 0 1 6.37 1.46 167.23 167.23 0 0 0 8.93 3.53c1.37.5 2.74 1 4.05 1.63 2.37 1.15 4.52 2.72 6.9 3.82a20.75 20.75 0 0 0 4.67 1.49z" fill="#dacc68"/><g class="i j o"><path d="M434.6 383.64l11.73 5.6m-16.7 4.13l11.73 5.6" stroke-width="2.1" class="l"/><path d="M265.92 434.44c15.4 2.25 42.74 2.8 66.9-19.05 19.44-17.6 37.2-51.2 82.34-36.4" class="p"/></g><path d="M436.4 377.3c5.33 2.82-5.58 23.44-10.9 20.62l-7.43-3.92A11.66 11.66 0 1 1 429 373.37z" class="k"/><path d="M276.8 327.52l-43.17 77.17c-6.64 11.17-5.28 23.64-3.9 26.76s20.32 5.28 37.7-1.36 62.16-29.4 65.48-31.15a81.4 81.4 0 0 0 8.53 4.83c6 2.83 10.8 2.94 14.68 5.87s8.12 8.52 15.6 4.9c4.46-2.15-5.42-16-9.84-23.66-4.33-3.7-19.77-10.1-27.5-9-10.95 1.56-65.93 20.28-65.93 20.28l19.92-34.38z" class="r"/><path d="M290.64 310.75c-9 2.82-12.43 7.2-21.2 23.17s-20.38 35.37-20.38 35.37 9.43 14.7 30.22 18.9l14.1-23.84zm106 1.4c10.73 1.75 38 9.76 54.75-1.47 0 0 11 16.82 9.14 37.93 0 0-22.64 20.2-58 12.1z" class="q"/><path d="M399.84 475.9l31.4 8.63-2.55 17.27-35.67-3.75 6.82-22.15z" class="r"/><path d="M399.84 475.9l-98.92-34.7c-26.76-9.8-66-29.4-81.45-12.94s-2.54 41 34.7 54.33S396.64 500 396.64 500a46.69 46.69 0 0 0 3.2-24.1z" fill="url(#C)"/><path d="M462.1 476.32s.93 4.1 0 12.53-5.68 14.5-7.1 26.8c0 0-4.16-8.26-2.9-21s10-18.34 10-18.34z" fill="#fbf285"/><path d="M413.57 501c5 .93 13 5.5 17.9 8.62s7.4 6.2 16.55 6.85c0 0 2-24.15 3.56-31.55s3.2-8.55 3.2-8.55-8.5-.14-12.9 1.78-4.95 2.9-12.4 2.6-10.52-.15-13.76-.47c-5.54 7.3-4.33 16.8-2.14 20.72z" class="k"/><path d="M448 516.45c2.9.18 6.44.38 7-.8s-2.22-8.65.27-22.83c1.34-7.62 7.45-16.2 6.78-16.5s-4.78-2.24-7.33 0-15.72 17-6.72 40.13z" fill="#eade74"/><path d="M399.74 488.85h-1.62s-47-3.06-97.4-11.36c-49.48-8.16-82.93-24.8-87.4-37-2.2 14.8 12 31.82 40.88 42.14C291.43 495.92 396.64 500 396.64 500a47.55 47.55 0 0 0 3.1-11.15z" fill="#4f7fac"/><g clip-path="url(#D)" class="i j o p"><path d="M390.5 471.67c-.06 6.5-1.4 21.14-4.27 30.13"/></g><path d="M293.38 364.34s5.62-14.88 1.78-36.82c0 0 7 26.77-.6 41.52zm109.12-3.64s2.05-16.9-1.62-32.7c0 0 4.46 9.08 4.23 33.24z" fill="#dacc68"/><path d="M199 144.7l38.66 40.06-12.95 14.6-42.86-35.32zm51.38 50.2a10.63 10.63 0 0 1 2.64 3.54 11.57 11.57 0 0 1 1 4.12 11.16 11.16 0 0 1-.55 4.2 10.58 10.58 0 0 1-2.18 3.78 10.76 10.76 0 0 1-3.53 2.66 11.18 11.18 0 0 1-8.3.5 10.7 10.7 0 0 1-3.81-2.22 11.22 11.22 0 0 1-3.75-7.66 11.51 11.51 0 0 1 .53-4.22 10.5 10.5 0 0 1 2.2-3.83 10.3 10.3 0 0 1 3.5-2.6 11.31 11.31 0 0 1 8.38-.47 10.77 10.77 0 0 1 3.85 2.2z" fill="url(#E)"><animate attributeName="visibility" from="hidden" to="visible" begin="0" dur="1s" fill="freeze" repeatCount="indefinite"/></path><path d="M279.15 158.4l-17.3 4.32a29.18 29.18 0 0 1-1.66-9.24 20.19 20.19 0 0 1 1.12-6.75 16.39 16.39 0 0 1 2.75-4.87 41.36 41.36 0 0 1 3.39-3.62l2.95-3a5.42 5.42 0 0 0 1.44-3.08 4.59 4.59 0 0 0-1.95-4.19 7 7 0 0 0-3.11-1.15 12.33 12.33 0 0 0-4.77.4 34.35 34.35 0 0 0-4.29 1.42 48.89 48.89 0 0 0-5 2.35 54 54 0 0 0-5 3.05 29.89 29.89 0 0 0-4.26 3.49L236.12 118l3.7-3.4a38 38 0 0 1 4.71-3.46 47 47 0 0 1 5.85-3.12 40.44 40.44 0 0 1 7.12-2.43 41 41 0 0 1 12.33-1.23 29.92 29.92 0 0 1 11.08 2.67 25.37 25.37 0 0 1 8.74 6.65 25.87 25.87 0 0 1 5.28 10.73 19.13 19.13 0 0 1 .57 8.15 15 15 0 0 1-2.33 5.72 21.24 21.24 0 0 1-4 4.37q-2.36 2-4.5 4.1a23 23 0 0 0-3.73 4.87 14.87 14.87 0 0 0-1.78 6.79zm5.93 12.88a10.47 10.47 0 0 1 .18 4.41 11.69 11.69 0 0 1-1.48 4 11.3 11.3 0 0 1-2.83 3.15 10.53 10.53 0 0 1-3.93 1.88 10.66 10.66 0 0 1-4.41.2 11.19 11.19 0 0 1-7.14-4.28 10.86 10.86 0 0 1-1.89-4 11.26 11.26 0 0 1 1.24-8.44 11.53 11.53 0 0 1 2.82-3.18A10.77 10.77 0 0 1 276 163a11.5 11.5 0 0 1 4 1.49 11.13 11.13 0 0 1 3.19 2.87 10.74 10.74 0 0 1 1.89 3.93z" fill="url(#F)"><animate attributeName="visibility" from="hidden" to="visible" begin="0" dur="1s" fill="freeze" repeatCount="indefinite"/></path><path d="M349 250.6s1.6 5.48 3.3 7.92 2.1 3.18 2.1 4-3.27 3-4.8 2.43-1.6-9.2-.6-14.35z" fill="#e5aeaa"/><path d="M348.33 258.75s.14 4.18 1.25 4.8 4.8-1.06 4.8-1.06-2.22 3.07-4.43 2.5-1.6-6.24-1.6-6.24z" class="n"/><g fill="#f48283"><path d="M344.26 277.34a13.21 13.21 0 0 0 8.37-1.12 4.55 4.55 0 0 1-4.37 3.24 4.43 4.43 0 0 1-4-2.12z" opacity=".4"/><path d="M348.56 270.73c6-1.4 9 1.73 9.2 1.9a.62.62 0 0 1 0 .87.62.62 0 0 1-.87 0c-.2-.22-5-5.06-14.93 1.7a.62.62 0 0 1-.69-1 22.09 22.09 0 0 1 7.28-3.47z"/></g></svg>